<svg width="40" height="36" viewBox="0 0 40 36" fill="none" xmlns="http://www.w3.org/2000/svg">
<path d="M20.009 8.52929C14.3304 8.52929 9.75004 12.5371 9.75004 17.5059C9.75004 22.4746 14.3304 26.4824 20.009 26.4824C25.6875 26.4824 30.2679 22.4746 30.2679 17.5059C30.2679 12.5371 25.6875 8.52929 20.009 8.52929ZM20.009 23.3418C16.3393 23.3418 13.3393 20.7246 13.3393 17.5059C13.3393 14.2871 16.3304 11.6699 20.009 11.6699C23.6875 11.6699 26.6786 14.2871 26.6786 17.5059C26.6786 20.7246 23.6786 23.3418 20.009 23.3418ZM33.0804 8.16211C33.0804 9.32617 32.0089 10.2559 30.6875 10.2559C29.3572 10.2559 28.2947 9.31836 28.2947 8.16211C28.2947 7.00586 29.3661 6.06836 30.6875 6.06836C32.0089 6.06836 33.0804 7.00586 33.0804 8.16211ZM39.875 10.2871C39.7232 7.48242 38.9911 4.99804 36.6429 2.95117C34.3036 0.904296 31.4643 0.263672 28.259 0.123047C24.9554 -0.0410156 15.0536 -0.0410156 11.75 0.123047C8.55361 0.255859 5.71433 0.896484 3.36611 2.94336C1.0179 4.99023 0.294686 7.47461 0.133972 10.2793C-0.0535278 13.1699 -0.0535278 21.834 0.133972 24.7246C0.285758 27.5293 1.0179 30.0137 3.36611 32.0605C5.71433 34.1074 8.54468 34.748 11.75 34.8887C15.0536 35.0527 24.9554 35.0527 28.259 34.8887C31.4643 34.7558 34.3036 34.1152 36.6429 32.0605C38.9822 30.0137 39.7143 27.5293 39.875 24.7246C40.0625 21.834 40.0625 13.1777 39.875 10.2871ZM35.6072 27.8262C34.9107 29.3574 33.5625 30.5371 31.8036 31.1543C29.1697 32.0683 22.9197 31.8574 20.009 31.8574C17.0982 31.8574 10.8393 32.0605 8.21432 31.1543C6.46432 30.5449 5.11611 29.3652 4.41075 27.8262C3.36611 25.5215 3.60718 20.0527 3.60718 17.5059C3.60718 14.959 3.37504 9.48242 4.41075 7.18554C5.10718 5.65429 6.4554 4.47461 8.21432 3.85742C10.8482 2.94336 17.0982 3.1543 20.009 3.1543C22.9197 3.1543 29.1786 2.95117 31.8036 3.85742C33.5536 4.46679 34.9018 5.64648 35.6072 7.18554C36.6518 9.49023 36.4107 14.959 36.4107 17.5059C36.4107 20.0527 36.6518 25.5293 35.6072 27.8262Z" fill="black"/>
</svg>
